<svg width="12" height="10" viewBox="0 0 12 10" fill="none" xmlns="http://www.w3.org/2000/svg">
<path d="M5.87912 8.55664C5.87912 8.76808 6.05052 8.93949 6.26196 8.93949C6.4734 8.93949 6.64481 8.76808 6.64481 8.55664L5.87912 8.55664ZM6.53268 1.39471C6.38316 1.2452 6.14076 1.2452 5.99125 1.39471L3.55484 3.83112C3.40533 3.98063 3.40533 4.22304 3.55484 4.37255C3.70435 4.52206 3.94675 4.52206 4.09626 4.37255L6.26196 2.20685L8.42766 4.37255C8.57717 4.52206 8.81958 4.52206 8.96909 4.37255C9.1186 4.22304 9.1186 3.98063 8.96909 3.83112L6.53268 1.39471ZM6.64481 8.55664L6.64481 1.66542L5.87912 1.66542L5.87912 8.55664L6.64481 8.55664Z" fill="#0C4220"/>
</svg>
