<svg width="39" height="39" viewBox="0 0 39 39" fill="none" xmlns="http://www.w3.org/2000/svg">
<rect x="0.7701" y="0.7701" width="36.9648" height="36.9648" rx="11.5515" stroke="white" stroke-width="1.5402"/>
<path fill-rule="evenodd" clip-rule="evenodd" d="M30.3183 19.6608V24.5544C30.3183 26.1309 29.0403 27.409 27.4637 27.409C25.8872 27.409 24.6091 26.1309 24.6091 24.5544V19.6608C24.6091 18.0842 25.8872 16.8062 27.4637 16.8062C29.0403 16.8062 30.3183 18.0842 30.3183 19.6608ZM27.4637 18.4374C26.7881 18.4374 26.2403 18.9851 26.2403 19.6608V24.5544C26.2403 25.23 26.7881 25.7778 27.4637 25.7778C28.1394 25.7778 28.6871 25.23 28.6871 24.5544V19.6608C28.6871 18.9851 28.1394 18.4374 27.4637 18.4374Z" fill="white"/>
<path d="M29.5028 13.1354C29.5028 14.2616 28.5899 15.1744 27.4638 15.1744C26.3377 15.1744 25.4248 14.2616 25.4248 13.1354C25.4248 12.0093 26.3377 11.0964 27.4638 11.0964C28.5899 11.0964 29.5028 12.0093 29.5028 13.1354Z" fill="white"/>
<path fill-rule="evenodd" clip-rule="evenodd" d="M22.6343 15.5824V28.632C22.6343 30.2086 21.3562 31.4866 19.7797 31.4866C18.2031 31.4866 16.925 30.2086 16.925 28.632V15.5824C16.925 14.0058 18.2031 12.7278 19.7797 12.7278C21.3562 12.7278 22.6343 14.0058 22.6343 15.5824ZM19.7797 14.359C19.104 14.359 18.5563 14.9067 18.5563 15.5824V28.632C18.5563 29.3077 19.104 29.8554 19.7797 29.8554C20.4553 29.8554 21.0031 29.3077 21.0031 28.632V15.5824C21.0031 14.9067 20.4553 14.359 19.7797 14.359Z" fill="white"/>
<path d="M21.8187 9.05731C21.8187 10.1834 20.9058 11.0963 19.7797 11.0963C18.6536 11.0963 17.7407 10.1834 17.7407 9.05731C17.7407 7.9312 18.6536 7.01831 19.7797 7.01831C20.9058 7.01831 21.8187 7.9312 21.8187 9.05731Z" fill="white"/>
<path fill-rule="evenodd" clip-rule="evenodd" d="M14.9504 19.6608V24.5544C14.9504 26.1309 13.6724 27.409 12.0958 27.409C10.5193 27.409 9.24121 26.1309 9.24121 24.5544V19.6608C9.24121 18.0842 10.5193 16.8062 12.0958 16.8062C13.6724 16.8062 14.9504 18.0842 14.9504 19.6608ZM12.0958 18.4374C11.4201 18.4374 10.8724 18.9851 10.8724 19.6608V24.5544C10.8724 25.23 11.4201 25.7778 12.0958 25.7778C12.7715 25.7778 13.3192 25.23 13.3192 24.5544V19.6608C13.3192 18.9851 12.7715 18.4374 12.0958 18.4374Z" fill="white"/>
<path d="M14.1349 13.1354C14.1349 14.2616 13.222 15.1744 12.0959 15.1744C10.9698 15.1744 10.0569 14.2616 10.0569 13.1354C10.0569 12.0093 10.9698 11.0964 12.0959 11.0964C13.222 11.0964 14.1349 12.0093 14.1349 13.1354Z" fill="white"/>
</svg>
