<svg width="12" height="9" viewBox="0 0 12 9" fill="none" xmlns="http://www.w3.org/2000/svg">
<g clip-path="url(#clip0_607_30468)">
<path d="M5.34175 7.93652C5.34175 8.15148 5.516 8.32573 5.73096 8.32573C5.94591 8.32573 6.12017 8.15148 6.12017 7.93652L5.34175 7.93652ZM6.00617 0.655567C5.85417 0.503572 5.60774 0.503572 5.45575 0.655567L2.97884 3.13247C2.82685 3.28447 2.82685 3.5309 2.97884 3.68289C3.13084 3.83489 3.37727 3.83489 3.52926 3.68289L5.73096 1.4812L7.93265 3.68289C8.08465 3.83489 8.33108 3.83489 8.48307 3.68289C8.63507 3.5309 8.63507 3.28447 8.48307 3.13247L6.00617 0.655567ZM6.12017 7.93652L6.12016 0.930778L5.34175 0.930779L5.34175 7.93652L6.12017 7.93652Z" fill="#0C4220"/>
</g>
<defs>
<clipPath id="clip0_607_30468">
<rect width="10.8978" height="8.56258" fill="white" transform="translate(0.281006 0.151367)"/>
</clipPath>
</defs>
</svg>
