<svg width="47" height="47" viewBox="0 0 47 47" fill="none" xmlns="http://www.w3.org/2000/svg">
<path opacity="0.4" d="M21.4634 4.03406L10.6926 8.06823C8.63632 8.85156 6.95215 11.2799 6.95215 13.4928V29.3553C6.95215 30.9416 7.99007 33.037 9.26298 33.977L20.0338 42.0257C21.9334 43.4553 25.0471 43.4553 26.9467 42.0257L37.7176 33.977C38.9905 33.0174 40.0284 30.9416 40.0284 29.3553V13.4928C40.0284 11.2995 38.3442 8.85156 36.288 8.08781L25.5171 4.05364C24.4205 3.62281 22.5796 3.62281 21.4634 4.03406Z" fill="#197FC6"/>
<path d="M20.8758 27.8671C20.5037 27.8671 20.1316 27.73 19.8379 27.4363L16.685 24.2834C16.1171 23.7154 16.1171 22.7754 16.685 22.2075C17.2529 21.6396 18.1929 21.6396 18.7608 22.2075L20.8758 24.3225L28.2587 16.9396C28.8266 16.3717 29.7666 16.3717 30.3346 16.9396C30.9025 17.5075 30.9025 18.4475 30.3346 19.0154L21.9137 27.4363C21.62 27.73 21.2479 27.8671 20.8758 27.8671Z" fill="#197FC6"/>
</svg>
